# xmcd
#
# Track frame offsets:
#	150
#	28505
#	45755
#	66761
#	89267
#	108320
#	141249
#	153015
#	173254
#	186873
#	205177
#	229310
#	251497
#	285329
#	309979
#
# Disc length: 4363 seconds
#
# Revision: 0
# Processed by: cddbd v1.5.1PL0 Copyright (c) Steve Scherf et al.
# Submitted via: EasyCDDAExtractor 8.2.0.1
#
DISCID=b511090f
DTITLE=Peter Gabriel - Hit CD2
DYEAR=1900
DGENRE=Blues
TTITLE0=San Jacinto
TTITLE1=No Self Control
TTITLE2=Cloudless
TTITLE3=The Rhythm Of The Heat
TTITLE4=I Have The Touch (Robbie Robertson mix)
TTITLE5=I Grieve
TTITLE6=D.I.Y.
TTITLE7=Different Drum
TTITLE8=The Drop
TTITLE9=The Tower - Steve Osborne Re-Mix
TTITLE10=Lovetown
TTITLE11=Father, Son
TTITLE12=Signal To Noise
TTITLE13=Downside Up (Live)
TTITLE14=Washing of The Water
EXTD=
EXTT0=
EXTT1=
EXTT2=
EXTT3=
EXTT4=
EXTT5=
EXTT6=
EXTT7=
EXTT8=
EXTT9=
EXTT10=
EXTT11=
EXTT12=
EXTT13=
EXTT14=
PLAYORDER=
